<svg width="208" height="162" viewBox="0 0 208 162" fill="none" xmlns="http://www.w3.org/2000/svg">
<g clip-path="url(#clip0)">
<path d="M156 0H52C45.1044 0 38.4912 2.13348 33.6152 5.93109C28.7393 9.7287 26 14.8794 26 20.25V141.75C26 147.121 28.7393 152.271 33.6152 156.069C38.4912 159.867 45.1044 162 52 162H156C162.896 162 169.509 159.867 174.385 156.069C179.261 152.271 182 147.121 182 141.75V20.25C182 14.8794 179.261 9.7287 174.385 5.93109C169.509 2.13348 162.896 0 156 0V0ZM86.398 57.1657C87.0023 56.6951 87.7198 56.3217 88.5094 56.067C89.299 55.8122 90.1453 55.6811 91 55.6811C91.8547 55.6811 92.701 55.8122 93.4906 56.067C94.2802 56.3217 94.9977 56.6951 95.602 57.1657C96.2063 57.6364 96.6857 58.1952 97.0128 58.8102C97.3399 59.4252 97.5082 60.0843 97.5082 60.75C97.5082 61.4157 97.3399 62.0748 97.0128 62.6898C96.6857 63.3048 96.2063 63.8636 95.602 64.3343L74.191 81L95.602 97.6657C96.8225 98.6163 97.5082 99.9056 97.5082 101.25C97.5082 102.594 96.8225 103.884 95.602 104.834C94.3815 105.785 92.7261 106.319 91 106.319C89.2739 106.319 87.6185 105.785 86.398 104.834L60.398 84.5843C59.7927 84.114 59.3124 83.5553 58.9847 82.9403C58.6571 82.3252 58.4884 81.6659 58.4884 81C58.4884 80.3341 58.6571 79.6748 58.9847 79.0597C59.3124 78.4447 59.7927 77.886 60.398 77.4157L86.398 57.1657ZM121.602 57.1657L147.602 77.4157C148.207 77.886 148.688 78.4447 149.015 79.0597C149.343 79.6748 149.512 80.3341 149.512 81C149.512 81.6659 149.343 82.3252 149.015 82.9403C148.688 83.5553 148.207 84.114 147.602 84.5843L121.602 104.834C120.998 105.305 120.28 105.678 119.491 105.933C118.701 106.188 117.855 106.319 117 106.319C116.145 106.319 115.299 106.188 114.509 105.933C113.72 105.678 113.002 105.305 112.398 104.834C111.794 104.364 111.314 103.805 110.987 103.19C110.66 102.575 110.492 101.916 110.492 101.25C110.492 100.584 110.66 99.9252 110.987 99.3102C111.314 98.6952 111.794 98.1364 112.398 97.6657L133.809 81L112.398 64.3343C111.177 63.3836 110.492 62.0944 110.492 60.75C110.492 59.4056 111.177 58.1164 112.398 57.1657C113.619 56.2151 115.274 55.6811 117 55.6811C118.726 55.6811 120.381 56.2151 121.602 57.1657Z" fill="#753BEA" fill-opacity="0.3"/>
</g>
<defs>
<clipPath id="clip0">
<rect width="208" height="162" fill="white"/>
</clipPath>
</defs>
</svg>
