<svg width="68" height="56" viewBox="0 0 68 56" fill="none" xmlns="http://www.w3.org/2000/svg">
<g clip-path="url(#clip0)">
<path d="M29.4301 55.604L23.0201 53.6799C22.3475 53.4842 21.9692 52.7558 22.1584 52.0601L36.5022 0.945744C36.6913 0.250015 37.3954 -0.141333 38.0679 0.054341L44.4779 1.97847C45.1505 2.17414 45.5288 2.90248 45.3396 3.59821L30.9958 54.7126C30.7962 55.4083 30.1026 55.8105 29.4301 55.604ZM17.4507 43.407L22.0218 38.3629C22.5051 37.8303 22.4736 36.9823 21.9377 36.4932L12.4172 27.8292L21.9377 19.1652C22.4736 18.676 22.5157 17.8281 22.0218 17.2954L17.4507 12.2513C16.9778 11.7295 16.1792 11.6969 15.6643 12.197L0.52186 26.8725C-0.0140616 27.3835 -0.0140616 28.264 0.52186 28.7749L15.6643 43.4613C16.1792 43.9614 16.9778 43.9396 17.4507 43.407ZM51.8337 43.4722L66.9761 28.7858C67.512 28.2749 67.512 27.3943 66.9761 26.8834L51.8337 12.1861C51.3293 11.6969 50.5307 11.7187 50.0473 12.2405L45.4762 17.2845C44.9928 17.8172 45.0244 18.6651 45.5603 19.1543L55.0808 27.8292L45.5603 36.4932C45.0244 36.9823 44.9823 37.8303 45.4762 38.3629L50.0473 43.407C50.5202 43.9396 51.3188 43.9614 51.8337 43.4722Z" fill="#753BEA" fill-opacity="0.8"/>
</g>
<defs>
<clipPath id="clip0">
<rect width="67.2529" height="55.6583" fill="white" transform="translate(0.121399 0.00186157)"/>
</clipPath>
</defs>
</svg>
