<svg width="75" height="75" viewBox="0 0 75 75" fill="none" xmlns="http://www.w3.org/2000/svg">
<path d="M16.1944 41.1654V49.8579C16.1944 52.1161 17.4318 54.2197 19.4116 55.3024L34.8788 63.7475C36.7348 64.7683 38.9621 64.7683 40.8182 63.7475L56.2853 55.3024C58.2651 54.2197 59.5025 52.1161 59.5025 49.8579V41.1654L40.8182 51.3737C38.9621 52.3946 36.7348 52.3946 34.8788 51.3737L16.1944 41.1654ZM34.8788 11.2828L8.80112 25.5126C6.66665 26.6881 6.66665 29.7816 8.80112 30.9571L34.8788 45.1869C36.7348 46.2077 38.9621 46.2077 40.8182 45.1869L65.6894 31.6067V49.8889C65.6894 51.5903 67.0814 52.9823 68.7828 52.9823C70.4842 52.9823 71.8763 51.5903 71.8763 49.8889V30.06C71.8763 28.9154 71.2576 27.8946 70.2677 27.3377L40.8182 11.2828C39.9042 10.7954 38.8843 10.5404 37.8485 10.5404C36.8126 10.5404 35.7927 10.7954 34.8788 11.2828Z" fill="#753BEA" fill-opacity="0.8"/>
</svg>
