<svg width="262" height="262" viewBox="0 0 262 262" fill="none" xmlns="http://www.w3.org/2000/svg">
<path d="M45.85 52.4C40.6384 52.4 35.6404 54.4703 31.9553 58.1553C28.2702 61.8404 26.2 66.8385 26.2 72.05V189.95C26.2 195.161 28.2702 200.16 31.9553 203.845C35.6404 207.53 40.6384 209.6 45.85 209.6H216.15C221.361 209.6 226.359 207.53 230.045 203.845C233.73 200.16 235.8 195.161 235.8 189.95V72.05C235.8 66.8385 233.73 61.8404 230.045 58.1553C226.359 54.4703 221.361 52.4 216.15 52.4H45.85ZM85.1499 131C79.9384 131 74.9404 128.93 71.2553 125.245C67.5702 121.56 65.5 116.561 65.5 111.35C65.5 106.138 67.5702 101.14 71.2553 97.4553C74.9404 93.7703 79.9384 91.7 85.1499 91.7C90.3615 91.7 95.3595 93.7703 99.0446 97.4553C102.73 101.14 104.8 106.138 104.8 111.35C104.8 116.561 102.73 121.56 99.0446 125.245C95.3595 128.93 90.3615 131 85.1499 131ZM64.8318 140.825H105.455C112.319 140.825 117.887 146.392 117.887 153.257C117.887 164.353 110.328 174.02 99.5599 176.719L98.787 176.915C89.8266 179.142 80.447 179.142 71.4866 176.915L70.7006 176.719C65.4714 175.408 60.8303 172.387 57.5146 168.136C54.1989 163.885 52.3987 158.648 52.4 153.257C52.4 146.392 57.9674 140.825 64.8318 140.825ZM144.1 111.35C144.1 109.613 144.79 107.947 146.018 106.718C147.247 105.49 148.913 104.8 150.65 104.8H189.95C191.687 104.8 193.353 105.49 194.581 106.718C195.81 107.947 196.5 109.613 196.5 111.35C196.5 113.087 195.81 114.753 194.581 115.982C193.353 117.21 191.687 117.9 189.95 117.9H150.65C148.913 117.9 147.247 117.21 146.018 115.982C144.79 114.753 144.1 113.087 144.1 111.35ZM150.65 144.1H189.95C191.687 144.1 193.353 144.79 194.581 146.018C195.81 147.247 196.5 148.913 196.5 150.65C196.5 152.387 195.81 154.053 194.581 155.282C193.353 156.51 191.687 157.2 189.95 157.2H150.65C148.913 157.2 147.247 156.51 146.018 155.282C144.79 154.053 144.1 152.387 144.1 150.65C144.1 148.913 144.79 147.247 146.018 146.018C147.247 144.79 148.913 144.1 150.65 144.1Z" fill="#753BEA" fill-opacity="0.3"/>
</svg>
