<svg width="75" height="76" viewBox="0 0 75 76" fill="none" xmlns="http://www.w3.org/2000/svg">
<path d="M14.6508 66.2615C14.6508 66.2615 10.0149 66.2615 10.0149 61.5944C10.0149 56.9273 14.6508 42.9262 37.8303 42.9262C61.0097 42.9262 65.6456 56.9273 65.6456 61.5944C65.6456 66.2615 61.0097 66.2615 61.0097 66.2615H14.6508ZM37.8303 38.2591C41.5188 38.2591 45.0563 36.784 47.6645 34.1583C50.2727 31.5326 51.7379 27.9713 51.7379 24.258C51.7379 20.5447 50.2727 16.9834 47.6645 14.3577C45.0563 11.732 41.5188 10.2568 37.8303 10.2568C34.1417 10.2568 30.6042 11.732 27.996 14.3577C25.3878 16.9834 23.9226 20.5447 23.9226 24.258C23.9226 27.9713 25.3878 31.5326 27.996 34.1583C30.6042 36.784 34.1417 38.2591 37.8303 38.2591Z" fill="#753BEA" fill-opacity="0.8"/>
</svg>
