<svg width="73" height="73" viewBox="0 0 73 73" fill="none" xmlns="http://www.w3.org/2000/svg">
<path d="M16.4097 10.3906C18.2861 9.72118 20.3139 9.59814 22.2574 10.0358C24.2009 10.4734 25.9803 11.4537 27.3886 12.8627C28.797 14.2717 29.7765 16.0515 30.2132 17.9952C30.65 19.9389 30.5261 21.9666 29.8558 23.8427L62.4639 56.4507L56.0836 62.828L23.4756 30.223C21.5992 30.8924 19.5714 31.0154 17.6279 30.5778C15.6844 30.1401 13.905 29.1599 12.4966 27.7509C11.0883 26.3419 10.1088 24.5621 9.67203 22.6184C9.23528 20.6746 9.35922 18.6469 10.0294 16.7708L16.7525 23.4969C17.1685 23.9277 17.6662 24.2713 18.2165 24.5076C18.7667 24.744 19.3585 24.8684 19.9574 24.8736C20.5562 24.8788 21.1501 24.7647 21.7044 24.5379C22.2587 24.3112 22.7622 23.9763 23.1857 23.5528C23.6091 23.1293 23.944 22.6258 24.1708 22.0715C24.3976 21.5172 24.5117 20.9233 24.5065 20.3245C24.5013 19.7256 24.3769 19.1338 24.1405 18.5836C23.9041 18.0333 23.5605 17.5357 23.1298 17.1196L16.4067 10.3875L16.4097 10.3906ZM47.5805 16.0552L57.148 10.7393L61.3995 14.9909L56.0836 24.5583L50.7677 25.6227L44.3934 32L40.1389 27.7484L46.5162 21.3711L47.5805 16.0552ZM26.3199 39.4416L32.6972 45.8219L17.8139 60.7052C16.9931 61.5183 15.8917 61.9854 14.7367 62.0102C13.5817 62.0351 12.4612 61.6157 11.6063 60.8387C10.7514 60.0617 10.2273 58.9862 10.142 57.8341C10.0567 56.682 10.4168 55.5411 11.1479 54.6467L11.4396 54.325L26.3229 39.4416H26.3199Z" fill="#753BEA" fill-opacity="0.8"/>
</svg>
